<svg xmlns="http://www.w3.org/2000/svg" width="48" height="48" viewBox="0 0 48 48"><path fill="#EA4335" d="M24 9.5c3.54 0 6.71 1.22 9.21 3.6l6.85-6.85C35.9 2.38 30.47 0 24 0 14.62 0 6.51 5.38 2.56 13.22l7.98 6.19C12.43 13.72 17.74 9.5 24 9.5z"/><path fill="#4285F4" d="M46.74 24.55c0-1.64-.15-3.22-.42-4.73H24v9.01h12.7c-.55 3.01-2.25 5.57-4.81 7.29l7.7 5.97c4.49-4.14 7.15-10.25 7.15-17.54z"/><path fill="#FBBC05" d="M10.53 28.59c-.48-1.45-.76-2.99-.76-4.59s.27-3.14.76-4.59l-7.98-6.19C.92 16.46 0 20.12 0 24c0 3.88.92 7.54 2.56 10.78l7.97-6.19z"/><path fill="#34A853" d="M24 48c6.48 0 11.93-2.13 15.89-5.81l-7.7-5.97c-2.21 1.49-5.04 2.37-8.19 2.37-6.26 0-11.57-4.22-13.47-9.91l-7.98 6.19C6.51 42.62 14.62 48 24 48z"/></svg>
