<svg xmlns="http://www.w3.org/2000/svg" width="272" height="92" viewBox="0 0 272 92"><path fill="#4285F4" d="M58.42 50.83v-8.12h17.91c-.58-3.07-2.31-7.14-5.81-10.14-3.5-3-9.5-6.22-19.12-6.22-15.6 0-27.75 12.83-27.75 28.53s12.15 28.53 27.75 28.53c8.94 0 14.94-3.56 18.25-6.73l6.44 6.19C71.39 77.29 64.95 81.39 53 81.39 31.84 81.39 12 65.41 12 45s19.84-36.39 41-36.39c11.39 0 21.05 4.14 28.08 11.23 7.02 7.08 9.25 17.06 9.25 24.99 0 2.37-.23 4.14-.52 6.01h-31.39z"/><path fill="#EA4335" d="M108.62 31.33c11.08 0 19.98 8.89 19.98 19.98s-8.9 19.98-19.98 19.98-19.98-8.89-19.98-19.98 8.9-19.98 19.98-19.98zm0 31.85c6.55 0 11.86-5.31 11.86-11.86s-5.31-11.86-11.86-11.86-11.86 5.31-11.86 11.86 5.31 11.86 11.86 11.86z"/><path fill="#FBBC05" d="M153.94 31.33c11.08 0 19.98 8.89 19.98 19.98s-8.9 19.98-19.98 19.98-19.98-8.89-19.98-19.98 8.9-19.98 19.98-19.98zm0 31.85c6.55 0 11.86-5.31 11.86-11.86s-5.31-11.86-11.86-11.86-11.86 5.31-11.86 11.86 5.31 11.86 11.86 11.86z"/><path fill="#4285F4" d="M199.27 31.33c10.87 0 19.5 8.63 19.5 19.98 0 11.35-8.63 19.98-19.5 19.98-6.19 0-10.42-2.73-12.78-5.31v4.43c0 7.58-4.07 11.65-10.62 11.65-5.31 0-9.01-3.81-10.21-7.01l-7.14 2.94c2.06 4.95 7.42 10.93 17.37 10.93 10.15 0 17.47-5.93 17.47-17.78V32.36h-8.09v3.45c-2.31-2.58-6.54-4.48-11.15-4.48-10.87 0-19.5 8.63-19.5 19.98 0 11.35 8.63 19.98 19.5 19.98 6.19 0 10.42-2.73 12.78-5.31zm-5.83 31.85c6.55 0 11.86-5.31 11.86-11.86s-5.31-11.86-11.86-11.86-11.86 5.31-11.86 11.86 5.31 11.86 11.86 11.86z"/><path fill="#34A853" d="M228.09 10.22h8.12v70.17h-8.12z"/><path fill="#EA4335" d="M259.08 31.33c8.97 0 16.55 4.43 19.23 10.88l-21.34 8.87c-.82-2.32-2.84-5.31-6.55-5.31-4.02 0-7.73 3.4-8.87 6.19l19.59 8.14c-.62 1.55-3.35 6.14-9.33 6.14-5.77 0-10.47-4.59-10.47-11.13.01-11.35 8.4-23.77 17.74-23.77zm-1.03 31.85c3.35 0 6.08-1.7 7.01-4.12l-16.71-6.91c-.41 7.27 4.9 11.03 9.7 11.03z"/></svg>
